<svg xmlns:xlink="http://www.w3.org/1999/xlink" xmlns="http://www.w3.org/2000/svg" width="33" height="15" fill="none" viewBox="0 0 33 15">
					<path fill="#FFFCE1" fill-rule="evenodd" d="M.834 1.646a1 1 0 0 1 1-1h30a1 1 0 1 1 0 2h-30a1 1 0 0 1-1-1Z" clip-rule="evenodd" style="translate: none; rotate: none; scale: none; transform-origin: 0px 0px;" data-svg-origin="16.834171295166016 1.6459999680519104" transform="matrix(1,0,0,1,0,0)"></path>
					<path fill="#FFFCE1" fill-rule="evenodd" d="M.834 7.646a1 1 0 0 1 1-1h30a1 1 0 1 1 0 2h-30a1 1 0 0 1-1-1Z" clip-rule="evenodd" style="translate: none; rotate: none; scale: none; transform-origin: 0px 0px; opacity: 1;" data-svg-origin="16.833999633789062 7.645999908447266" transform="matrix(1,0,0,1,0,0)"></path>
					<path fill="#FFFCE1" fill-rule="evenodd" d="M.834 13.646a1 1 0 0 1 1-1h30a1 1 0 1 1 0 2h-30a1 1 0 0 1-1-1Z" clip-rule="evenodd" style="translate: none; rotate: none; scale: none; transform-origin: 0px 0px;" data-svg-origin="16.833999633789062 13.645999908447266" transform="matrix(1,0,0,1,0,0)"></path>
				</svg>