<svg xmlns:xlink="http://www.w3.org/1999/xlink" xmlns="http://www.w3.org/2000/svg" viewBox="0 0 118 62" fill="none" aria-label="Nike" style="translate: none; rotate: none; scale: none; transform: translate(0px, 0px); opacity: 1; visibility: inherit;" width="118"  height="62" ><path fill="#FFFCE1" d="M28.464.628c-.105.105-.25.382-.342.632-.092.237-.25.658-.356.922a170.258 170.258 0 0 1-.79 2.107l-.382 1.027c-.092.25-.276.724-.395 1.054-.119.329-.303.816-.408 1.08-.105.276-.264.724-.369.987-.105.277-.277.75-.395 1.054a137.36 137.36 0 0 1-.79 2.107c-.105.276-.29.764-.408 1.093-.119.33-.303.816-.409 1.08-.105.276-.263.724-.368.987-.106.277-.277.751-.395 1.054-.119.316-.29.79-.395 1.054-.106.276-.29.763-.409 1.093-.118.329-.303.803-.395 1.053-.092.25-.276.724-.395 1.054-.118.329-.303.816-.408 1.08-.237.632-.527 1.395-.79 2.107-.119.316-.29.777-.382 1.027-.092.25-.25.698-.369.987-.105.29-.303.79-.421 1.12-.29.75-.58 1.514-.79 2.107-.093.25-.264.711-.383 1.014-.118.316-.302.817-.42 1.12a8.665 8.665 0 0 1-.33.79 1.325 1.325 0 0 0-.119.5c0 .263.08.263 3.661.263h3.675l.158-.368c.092-.198.408-.975.698-1.739.29-.764.645-1.685.79-2.041.145-.369.316-.843.369-1.053.131-.461.29-.883 1.185-3.161.368-.948.724-1.896.79-2.107.184-.62.54-1.567.645-1.712.066-.066.145-.303.198-.514.066-.276.131-.342.237-.237.145.145.079 1.146-.5 8.916-.12 1.514-.185 3.029-.159 3.358l.04.592 3.753.04c2.068.013 3.885 0 4.043-.04a.545.545 0 0 0 .369-.368c.105-.356.816-2.252 1.053-2.792a7.09 7.09 0 0 0 .237-.659c.04-.144.185-.566.33-.921.131-.37.566-1.488.935-2.503.381-1.014.777-2.014.882-2.212.105-.21.184-.46.184-.553 0-.105.093-.408.211-.685.33-.737.83-2.002 1.172-2.937.092-.25.277-.724.395-1.053.119-.33.303-.803.395-1.054l.382-1.027c.119-.303.303-.79.408-1.08.106-.29.29-.764.396-1.053.105-.29.29-.764.395-1.054.105-.29.29-.764.395-1.053.105-.29.29-.764.395-1.054.105-.29.29-.764.395-1.054.105-.29.29-.777.408-1.093.119-.302.29-.763.382-1.014.184-.5.448-1.211.777-2.08.119-.303.303-.79.408-1.08.408-1.106.632-1.66.817-2.12.105-.264.17-.62.145-.79l-.04-.317-3.226-.04c-1.778-.026-3.411 0-3.635.04-.435.08-.422.027-1.567 3.095-.106.29-.29.764-.395 1.054-.106.29-.277.75-.382 1.014-.106.276-.277.75-.395 1.053-.119.316-.303.817-.422 1.12-.408 1.08-.566 1.488-.974 2.607-.75 2.002-.817 2.173-.988 2.568-.092.21-.21.514-.25.645-.053.158-.132.211-.21.132-.08-.079-.054-.816.065-2.028.105-1.053.198-2.384.198-2.963 0-.58.092-1.975.184-3.095.224-2.45.303-4.872.171-5.11-.158-.25-7.506-.223-7.77.027Zm20.794.066a1.99 1.99 0 0 0-.342.619c-.053.21-.237.71-.395 1.106-.158.395-.33.869-.395 1.053-.066.185-.237.659-.395 1.054-.158.395-.33.87-.395 1.053-.066.185-.237.659-.395 1.054-.158.395-.33.87-.395 1.054-.066.184-.237.658-.395 1.053-.159.395-.33.87-.396 1.054-.065.184-.237.658-.395 1.053-.158.395-.329.87-.395 1.054-.066.184-.237.658-.395 1.053-.158.395-.33.87-.395 1.054-.066.184-.237.658-.395 1.053-.158.395-.33.87-.395 1.054-.066.184-.237.658-.395 1.053-.158.396-.33.87-.395 1.054-.066.184-.237.658-.395 1.053a79.218 79.218 0 0 0-.79 2.108c-.066.184-.237.658-.395 1.053-.159.395-.33.87-.396 1.054-.065.184-.237.658-.395 1.053-.158.395-.329.87-.395 1.054-.066.184-.237.658-.395 1.053-.158.395-.33.87-.395 1.054-.066.184-.237.658-.395 1.053-.158.395-.33.87-.395 1.054-.066.184-.237.658-.395 1.053-.54 1.37-.856 1.251 3.319 1.291l3.647.026.224-.421c.119-.224.264-.566.316-.75.066-.185.237-.672.395-1.067.158-.396.33-.87.395-1.054.066-.184.238-.658.396-1.053.158-.396.329-.87.395-1.054.066-.184.237-.659.395-1.054.158-.395.329-.869.395-1.053.066-.184.237-.659.395-1.054.158-.395.33-.869.395-1.053.066-.185.237-.659.395-1.054.158-.395.33-.869.395-1.053.066-.185.237-.659.395-1.054.158-.395.33-.869.395-1.053.066-.185.237-.659.395-1.054.158-.395.33-.87.395-1.053.066-.185.238-.659.395-1.054.158-.395.33-.87.396-1.053.065-.185.237-.659.395-1.054.158-.395.329-.87.395-1.054.066-.184.237-.658.395-1.053.158-.395.329-.87.395-1.054.066-.184.237-.658.395-1.053.158-.395.33-.87.395-1.054.066-.184.237-.658.395-1.053.158-.395.33-.87.395-1.054.066-.184.237-.658.395-1.053.158-.395.33-.87.395-1.054.066-.184.237-.658.395-1.053.646-1.66.698-1.87.5-1.989-.091-.066-1.711-.119-3.608-.119-3.186 0-3.45.014-3.66.25Z"></path><path fill="#FFFCE1" d="M57.936.786c-.118.197-.276.5-.33.698-.065.184-.236.672-.394 1.067-.158.395-.33.869-.395 1.053-.066.185-.237.659-.395 1.054-.158.395-.343.895-.409 1.12-.065.21-.17.513-.237.658a61.654 61.654 0 0 0-.737 1.975c-.343.935-.672 1.83-.738 1.975a6.069 6.069 0 0 0-.237.659c-.066.21-.25.724-.408 1.12-.158.394-.33.868-.395 1.053-.066.184-.237.658-.395 1.053-.158.395-.33.87-.395 1.054-.066.184-.237.658-.395 1.053-.158.395-.33.87-.395 1.054-.066.184-.237.658-.395 1.053-.158.396-.33.87-.395 1.054-.066.184-.237.658-.395 1.053a79.588 79.588 0 0 0-.79 2.108c-.067.184-.238.658-.396 1.053-.158.395-.329.87-.395 1.054-.066.184-.237.658-.395 1.053-.145.395-.395 1.08-.54 1.515-.145.434-.316.908-.382 1.053-.066.145-.276.672-.46 1.185-.185.5-.383 1.04-.448 1.186-.659 1.514-.962 1.382 3.266 1.382 3.66 0 3.687 0 3.884-.29.119-.157.211-.394.211-.513 0-.132.08-.395.185-.606.105-.197.29-.619.395-.935.118-.303.303-.79.408-1.08.105-.29.276-.75.382-1.027.105-.263.276-.737.395-1.053.118-.303.29-.777.395-1.054.105-.263.46-1.198.803-2.067.33-.87.685-1.791.79-2.042.659-1.698.777-1.962.87-1.817.04.092.131 2.33.184 4.978.053 2.647.132 5.4.184 6.124l.08 1.317 4.872.065 4.873.066-.646.29c-.355.171-.737.303-.856.303-.131 0-.487.079-.816.184-.316.093-.962.29-1.436.408-.987.264-2.054.554-2.897.79-.33.093-.974.264-1.449.383-.474.131-1.185.316-1.58.421-1.303.356-2.16.593-2.87.777-.79.224-1.818.5-2.832.777-.369.105-1.067.29-1.54.408-.475.132-1.12.303-1.45.395-.329.092-.974.264-1.448.395-.474.132-1.12.303-1.449.395-.329.093-.974.264-1.448.395a43.7 43.7 0 0 0-1.58.422c-.396.105-1.041.276-1.423.382-1.014.276-2.041.553-2.831.764-.369.105-1.067.29-1.541.408-.474.132-1.12.303-1.449.395-.329.092-.974.263-1.448.395-1.04.277-2.107.566-2.898.79-.329.092-.974.264-1.448.395-.474.119-1.146.303-1.515.395-2.16.58-2.62.646-5.07.633-2.502 0-2.831-.04-4.938-.698-.435-.132-1.16-.448-1.62-.685-.461-.237-.988-.514-1.185-.62-.198-.105-.922-.75-1.607-1.448-.961-.974-1.356-1.488-1.738-2.252-.883-1.83-1.172-2.99-1.251-5.07-.066-1.686.197-3.635.75-5.531.158-.514.33-1.106.395-1.317.185-.632.474-1.37 1.04-2.686.844-1.936.712-1.857-1.382.737-2.594 3.226-4.36 5.663-6.532 9.06-.316.5-.632 1.014-.672 1.12-.052.105-.21.369-.355.592-.264.422-.395.646-1.04 1.844-1.489 2.726-2.53 5.11-3.109 7.111-.513 1.752-.579 2.015-.777 3.03C.624 48.286.65 51.21.98 52.395c.54 1.962 1.08 2.963 2.292 4.254 1.264 1.33 3.858 3.134 5.03 3.49.145.04.58.197.975.342 1.83.698 2.91.856 5.926.856 2.858 0 3.516-.079 5.86-.658 1.317-.33 3.293-.909 3.885-1.133.171-.066.672-.237 1.12-.382a32.654 32.654 0 0 0 1.777-.671c.54-.211 1.225-.488 1.515-.593.29-.119.711-.277.922-.382.224-.092 1.488-.619 2.831-1.172 2.937-1.225 3.082-1.29 3.753-1.58.29-.119.725-.303.962-.409.224-.105.632-.276.882-.381.58-.264 1.251-.554 1.844-.79.25-.106.671-.29.922-.396.698-.29 1.33-.553 1.883-.803.263-.118.671-.29.882-.382.962-.395 1.923-.803 2.766-1.172.29-.132.71-.316.922-.408.223-.092.619-.264.882-.382.553-.25 1.185-.514 1.883-.803 1.08-.461 1.593-.685 3.134-1.37.488-.224.935-.408 1.001-.408.066 0 .316-.106.566-.224.633-.316.356-.198 6.756-2.937 3.253-1.396 6.006-2.581 6.124-2.634.395-.184 1.133-.5 1.844-.79a34.207 34.207 0 0 0 1.448-.619c1.186-.54 1.554-.698 2.042-.895.96-.409 2.199-.949 2.568-1.12a701.73 701.73 0 0 1 5.201-2.239 707.496 707.496 0 0 0 5.202-2.238c.224-.119.975-.435 1.62-.698.487-.211 1.383-.606 1.673-.751.118-.053 2.66-1.146 5.662-2.436a3636.46 3636.46 0 0 0 5.663-2.437c.185-.092.501-.237 1.58-.684a55.54 55.54 0 0 0 1.726-.764c.105-.053 1.619-.711 3.358-1.449 1.725-.737 3.2-1.396 3.279-1.462a.473.473 0 0 1 .29-.118c.092 0 .553-.184 1.001-.395.46-.224.882-.395.935-.395.039 0 .487-.185.974-.409.487-.237 1.067-.5 1.277-.592 1.686-.738 2.015-.948 1.844-1.238-.118-.184-.487-.171-1.29.066-.856.263-1.752.5-2.858.79-.474.132-1.12.303-1.449.395-.329.092-.974.263-1.448.395s-1.12.303-1.449.395c-.329.092-.975.264-1.449.395-.474.119-1.172.303-1.54.409-.382.105-1.014.263-1.383.368-.382.106-1.08.29-1.554.409a74.94 74.94 0 0 1-1.515.408c-1.962.553-3.252.908-4.28 1.172-.474.131-1.119.303-1.448.395-.33.092-.975.263-1.449.395-.474.132-1.12.303-1.449.395-.329.092-.974.263-1.448.395-.474.119-1.172.303-1.54.408-.383.106-1.015.264-1.384.37-.382.104-1.08.289-1.554.42-1.738.448-2.317.606-2.607.725a1.894 1.894 0 0 1-.566.118c-.237 0-.264-.052-.185-.434.053-.224.171-.567.264-.75.092-.185.197-.475.21-.66l.053-.329-4.07-.04c-2.567-.012-4.134-.078-4.24-.17-.105-.092-.132-.237-.052-.488.381-1.198 1.738-4.806 2.172-5.794.106-.237.198-.54.198-.685 0-.131.132-.342.29-.448.25-.184.83-.21 3.674-.21 3.766 0 3.556.052 3.872-.948.105-.316.303-.896.46-1.291 1.08-2.818 1.225-3.253 1.146-3.477-.079-.184-.46-.21-3.384-.21-2.647 0-3.319-.04-3.371-.185-.066-.171 1.132-3.595 1.87-5.32.105-.237.184-.514.184-.632 0-.37.685-.448 4.227-.448h3.543l.21-.5c.119-.264.264-.633.317-.817.065-.184.237-.658.395-1.054.158-.395.329-.869.395-1.053.066-.184.237-.645.382-1.04.144-.396.237-.751.197-.79-.04-.04-5.123-.093-11.312-.12C70.67.445 69.999.458 69.749.668c-.263.237-4.53 5.334-5.426 6.493-.25.33-.592.737-.75.922-.158.184-.474.526-.685.764-.448.513-.672.355-.369-.277.105-.237.29-.672.408-.988.764-2.041.83-2.225 1.594-4.174.329-.87.698-1.778.803-2.015.237-.553.237-.764-.026-.87-.119-.039-1.765-.078-3.675-.078H58.16l-.224.342Zm18.99 1.396c-.04.171-.197.632-.355 1.027-.158.395-.33.87-.395 1.054-.066.184-.237.658-.395 1.053-.159.395-.33.87-.396 1.054-.065.184-.237.658-.395 1.053-.158.395-.329.87-.395 1.054-.066.184-.237.658-.395 1.053-.158.395-.33.87-.395 1.054-.066.184-.237.658-.395 1.053-.158.396-.33.87-.395 1.054-.066.184-.237.658-.395 1.053-.158.396-.33.87-.395 1.054-.066.184-.237.659-.395 1.054-.158.395-.33.869-.395 1.053-.066.184-.237.659-.395 1.054-.159.395-.33.869-.396 1.053-.065.185-.237.659-.395 1.054-.158.395-.329.869-.395 1.053-.131.382-.395 1.08-.79 2.107-.158.395-.33.87-.395 1.054-.066.184-.237.658-.395 1.053-.158.396-.33.87-.395 1.054-.066.184-.237.658-.395 1.053-.158.396-.343.91-.408 1.146-.106.343-.461.672-.593.54-.013-.026-.092-3.029-.171-6.69-.08-3.66-.185-7.098-.224-7.651-.092-1.146-.092-1.159.961-2.265.356-.382.935-1.014 1.29-1.41.343-.394 1.265-1.408 2.029-2.238.764-.83 1.751-1.897 2.186-2.37.435-.475 1.304-1.436 1.936-2.12.632-.699 1.396-1.542 1.699-1.87.592-.673.843-.778.737-.33Z"></path><path fill="#FFFCE1" d="M97.462 5.482c1.408 0 2.529-1.089 2.529-2.572 0-1.473-1.12-2.572-2.53-2.572-1.408 0-2.528 1.1-2.528 2.572 0 1.483 1.12 2.572 2.529 2.572ZM95.349 2.91c0-1.28.95-2.198 2.113-2.198 1.173 0 2.113.917 2.113 2.198 0 1.291-.94 2.198-2.113 2.198-1.163 0-2.113-.907-2.113-2.198Zm1.088 1.398h.566V3.24h.405c.705 0 .427.917.63 1.067h.576v-.032c-.192-.075.032-1.12-.672-1.249v-.021c.384-.085.619-.32.619-.704 0-.523-.342-.822-.982-.822h-1.142v2.828Zm.566-1.537V1.95h.448c.32 0 .566.064.566.394 0 .342-.235.427-.577.427h-.437Z"></path></svg>