<svg xmlns:xlink="http://www.w3.org/1999/xlink" width="183" height="39" viewBox="0 0 183 39" fill="none" xmlns="http://www.w3.org/2000/svg" aria-label="Gucci" style="translate: none; rotate: none; scale: none; transform: translate(0px, 0px); opacity: 1; visibility: inherit;">
<g clip-path="url(#clip0_2_55)" fill="none">
<path d="M162.842 11.328L162.549 11.478C161.228 8.628 159.32 6.228 156.971 4.578C154.623 2.928 151.541 2.028 148.018 2.028C145.963 2.028 144.055 2.47801 142.294 3.37801C140.533 4.27801 138.918 5.478 137.45 6.978C136.129 8.478 135.102 10.278 134.221 12.528C133.341 14.628 133.047 17.028 133.047 19.728C133.047 22.278 133.487 24.678 134.221 26.928C135.102 29.028 136.129 30.978 137.45 32.478C138.771 33.978 140.386 35.178 142.294 36.078C144.055 36.978 145.963 37.278 148.018 37.278C151.541 37.278 154.476 36.678 156.678 35.628C158.879 34.428 160.934 32.628 162.402 30.228L162.696 30.378L162.549 33.978C161.668 34.878 160.641 35.778 159.613 36.378C158.439 37.128 157.265 37.578 155.944 38.178C154.623 38.628 153.302 38.928 151.981 39.228C150.66 39.528 149.192 39.678 147.871 39.678C144.936 39.678 142.294 39.228 139.652 38.328C137.01 37.428 134.808 36.078 132.754 34.278C130.846 32.478 129.231 30.378 128.057 27.978C126.883 25.578 126.296 22.728 126.296 19.728C126.296 16.728 126.883 14.028 128.057 11.628C129.231 9.22801 130.846 6.978 132.754 5.328C134.662 3.528 137.01 2.178 139.652 1.278C142.294 0.378 144.936 -0.071991 147.871 -0.071991C149.192 -0.071991 150.66 0.0780045 151.981 0.228004C153.302 0.528004 154.623 0.828 155.944 1.278C157.265 1.728 158.439 2.328 159.613 3.078C160.787 3.828 161.668 4.578 162.549 5.478L162.842 11.328Z" fill="#FFFCE1"></path>
<path d="M39.8456 22.278C39.4052 22.428 39.1117 22.728 38.6714 23.028C38.231 23.328 38.0843 23.778 38.0843 24.228V31.278C36.323 33.828 33.9746 35.928 31.1859 37.428C28.3972 38.928 25.3149 39.528 21.9391 39.528C19.0036 39.528 16.3617 39.078 13.7197 38.028C11.0778 37.128 8.8762 35.778 6.82136 33.978C4.9133 32.328 3.44555 30.228 2.27136 27.828C1.09717 25.428 0.510071 22.578 0.510071 19.578C0.510071 16.578 1.09717 13.878 2.27136 11.478C3.44555 9.07801 4.9133 6.82802 6.96814 5.17802C8.8762 3.37802 11.2246 2.02802 13.8665 1.12802C16.5085 0.228021 19.1504 -0.371979 22.0859 -0.371979C23.4068 -0.371979 24.8746 -0.221983 26.1956 -0.0719834C27.5165 0.228017 28.8375 0.528012 30.1585 0.978012C31.4794 1.42801 32.6536 2.02801 33.8278 2.77801C35.002 3.52801 35.8827 4.27802 36.7633 5.17802L37.0568 11.178L36.7633 11.328C35.4423 8.478 33.5343 6.07802 31.1859 4.42802C28.8375 2.77802 25.7552 1.87802 22.2327 1.87802C20.1778 1.87802 18.2697 2.32801 16.5085 3.22801C14.7472 4.12801 13.1327 5.328 11.6649 6.828C10.3439 8.328 9.31652 10.128 8.43588 12.378C7.55523 14.478 7.26168 16.878 7.26168 19.578C7.26168 22.128 7.70201 24.528 8.43588 26.778C9.31652 28.878 10.3439 30.828 11.6649 32.328C12.9859 33.828 14.6004 35.028 16.5085 35.928C18.2697 36.828 20.3246 37.128 22.3794 37.128C26.1956 37.128 29.5714 36.378 32.3601 34.878V24.228C32.3601 23.628 32.2133 23.328 31.773 23.028C31.3326 22.728 31.0391 22.428 30.5988 22.278V21.978C30.7456 21.978 31.1859 21.978 31.6262 22.128C32.0665 22.128 32.6536 22.128 33.0939 22.278H37.9375C38.3778 22.278 38.8181 22.278 39.2585 22.128C39.6988 22.128 39.9923 22.128 40.1391 21.978L39.8456 22.278Z" fill="#FFFCE1"></path>
<path d="M80.3552 0.828018C79.9149 0.978018 79.6214 1.27802 79.181 1.57802C78.7407 1.87802 78.5939 2.47803 78.5939 3.22803C78.5939 4.12803 78.5939 5.32803 78.4472 6.67803C78.4472 8.02803 78.4472 9.67802 78.4472 11.328C78.4472 13.128 78.4472 14.928 78.4472 17.028V23.478C78.4472 25.878 78.1536 28.128 77.5665 29.778C76.9794 31.578 76.2456 32.928 75.3649 34.128C74.4843 35.328 73.4568 36.228 72.2827 36.978C71.2552 37.728 70.081 38.178 69.0536 38.478C68.0262 38.928 66.9988 39.078 66.1181 39.228C65.2375 39.378 64.5036 39.378 63.9165 39.378C61.8617 39.378 59.8068 39.078 57.752 38.478C55.8439 37.878 54.0827 37.128 52.6149 35.778C51.1472 34.578 49.973 32.928 49.0923 30.978C48.2117 29.028 47.7714 26.628 47.7714 23.928V17.478V11.478C47.7714 9.67803 47.7714 8.02802 47.7714 6.52802C47.7714 5.02802 47.7714 3.82803 47.7714 2.92803C47.7714 2.02803 47.4778 1.57802 47.1843 1.27802C46.7439 0.978023 46.4504 0.678023 46.0101 0.528023V0.228027C46.1568 0.228027 46.4504 0.228036 46.8907 0.378036C47.331 0.378036 47.7714 0.378023 48.2117 0.528023C48.652 0.528023 49.0923 0.528023 49.6794 0.528023H51.7343C52.1746 0.528023 52.6149 0.528023 53.202 0.528023C53.6423 0.528023 54.0827 0.528037 54.523 0.378036C54.9633 0.378036 55.2568 0.378027 55.4036 0.228027V0.528023C54.9633 0.678023 54.6697 0.978023 54.2294 1.27802C53.9359 1.57802 53.6423 2.17803 53.6423 2.92803C53.6423 3.82803 53.6423 5.02802 53.4956 6.52802V24.228C53.4956 28.428 54.3762 31.428 56.2843 33.378C58.1923 35.328 60.981 36.378 64.6504 36.378C65.6778 36.378 66.9988 36.228 68.3197 35.928C69.6407 35.628 70.9617 35.028 72.1359 34.128C73.3101 33.228 74.3375 31.878 75.2181 30.228C76.0988 28.578 76.5391 26.328 76.5391 23.628C76.5391 20.628 76.5391 18.078 76.5391 15.978C76.5391 13.878 76.5391 11.928 76.5391 10.428C76.5391 8.92803 76.5391 7.57804 76.5391 6.37804C76.5391 5.32804 76.5391 4.27804 76.3923 3.37804C76.3923 2.47804 76.0988 2.02803 75.8052 1.72803C75.3649 1.42803 75.0714 1.12803 74.631 0.978027V0.678032C75.0714 0.828032 75.5117 0.828027 76.0988 0.978027C76.6859 0.978027 77.1262 0.978027 77.5665 0.978027C78.0068 0.978027 78.4472 0.978027 79.0343 0.978027C79.6214 0.828027 80.0617 0.828032 80.502 0.678032L80.3552 0.828018Z" fill="#FFFCE1"></path>
<path d="M120.865 11.328L120.571 11.478C119.25 8.628 117.342 6.228 114.994 4.578C112.646 2.928 109.563 2.028 106.041 2.028C103.986 2.028 102.078 2.47801 100.317 3.37801C98.5552 4.27801 96.9407 5.478 95.473 6.978C94.152 8.478 93.1246 10.278 92.2439 12.528C91.3633 14.628 91.0697 17.028 91.0697 19.728C91.0697 22.278 91.5101 24.678 92.2439 26.928C93.1246 29.028 94.152 30.978 95.473 32.478C96.7939 33.978 98.4084 35.178 100.317 36.078C102.078 36.978 103.986 37.278 106.041 37.278C109.563 37.278 112.499 36.678 114.7 35.628C116.902 34.428 118.957 32.628 120.425 30.228L120.718 30.378L120.571 33.978C119.691 34.878 118.663 35.778 117.636 36.378C116.462 37.128 115.287 37.578 113.967 38.178C112.646 38.628 111.325 38.928 110.004 39.228C108.683 39.528 107.215 39.678 105.894 39.678C102.958 39.678 100.316 39.228 97.6746 38.328C95.0326 37.428 92.831 36.078 90.7762 34.278C88.8681 32.478 87.2536 30.378 86.0794 27.978C84.9052 25.578 84.3181 22.728 84.3181 19.728C84.3181 16.728 84.9052 14.028 86.0794 11.628C87.2536 9.22801 88.8681 6.978 90.7762 5.328C92.6842 3.528 95.0326 2.178 97.6746 1.278C100.316 0.378 102.958 -0.071991 105.894 -0.071991C107.215 -0.071991 108.683 0.0780045 110.004 0.228004C111.325 0.528004 112.646 0.828 113.967 1.278C115.287 1.728 116.462 2.328 117.636 3.078C118.81 3.828 119.691 4.578 120.571 5.478L120.865 11.328Z" fill="#FFFCE1"></path>
<path d="M179.721 38.628C179.575 38.628 179.281 38.628 178.841 38.478C178.4 38.478 177.96 38.478 177.52 38.478C177.079 38.478 176.639 38.478 176.052 38.478H172.676C172.236 38.478 171.796 38.478 171.355 38.628C170.915 38.628 170.621 38.628 170.475 38.778V38.478C170.915 38.328 171.208 38.028 171.649 37.728C172.089 37.428 172.236 36.828 172.236 36.078C172.236 35.178 172.236 34.278 172.236 33.228C172.236 32.178 172.236 31.128 172.236 29.928V25.578V19.878V14.178V9.828C172.236 8.628 172.236 7.42801 172.236 6.52801C172.236 5.47801 172.236 4.57802 172.236 3.67802C172.236 2.77802 171.942 2.32801 171.649 2.02801C171.208 1.72801 170.915 1.42801 170.475 1.27801V0.978012C170.768 1.12801 171.062 1.12802 171.355 1.12802C171.796 1.12802 172.236 1.12802 172.676 1.12802C173.117 1.12802 173.557 1.12802 174.144 1.12802H176.052C176.492 1.12802 176.933 1.12802 177.373 1.12802C177.813 1.12802 178.254 1.12801 178.694 0.978012C179.134 0.978012 179.428 0.978003 179.575 0.828003V1.12802C179.134 1.27802 178.841 1.57802 178.4 1.87802C178.107 2.17802 177.813 2.77801 177.813 3.52801C177.813 4.42801 177.813 5.32802 177.667 6.37802V33.228C177.667 34.278 177.667 35.178 177.813 36.078C177.813 36.978 177.96 37.428 178.4 37.728C178.841 38.028 179.134 38.328 179.575 38.478L179.721 38.628Z" fill="#FFFCE1"></path>
</g>
<defs>
<clipPath id="clip0_2_55">
<rect width="182" height="39" fill="white" transform="translate(0.510071 3.05176e-05)"></rect>
</clipPath>
</defs>
</svg>