<svg xmlns:xlink="http://www.w3.org/1999/xlink" width="185" height="61" viewBox="0 0 185 61" fill="none" xmlns="http://www.w3.org/2000/svg" aria-label="Saumsung" style="translate: none; rotate: none; scale: none; transform: translate(0px, 0px); opacity: 1; visibility: inherit;">
<path d="M184.549 14.5198C182.051 0.169827 138.945 -4.29503 88.2702 4.52444C66.148 8.38295 46.2491 14.134 31.0539 20.5648C31.8624 20.3811 32.7443 20.2892 33.6814 20.2892C36.364 20.2892 40.0939 20.9323 40.0939 25.0664V26.4077H35.3534C35.3534 26.4077 35.3534 25.5809 35.3534 25.2318C35.3534 24.1845 34.692 23.5047 33.5895 23.5047C32.3952 23.5047 31.991 24.1661 31.8624 24.7725C31.8256 24.9929 31.7889 25.3972 31.8808 25.783C32.4136 28.0063 39.6345 29.2006 40.4246 33.1693C40.4981 33.5735 40.6818 34.6392 40.443 36.2929C39.9836 39.4532 37.1541 40.6291 33.7181 40.6291C30.1536 40.6291 26.8096 39.3429 26.8096 35.117V33.647H31.8991V35.4844C31.8991 36.5317 32.6157 37.2116 33.81 37.2116C35.0778 37.2116 35.5004 36.5685 35.6658 35.9438C35.7576 35.5947 35.8128 34.9883 35.629 34.529C34.6552 32.0669 27.912 30.9461 27.0852 27.0692C26.8831 26.1138 26.9014 25.3604 27.0484 24.4968C27.2689 23.1739 27.8936 22.2001 28.8123 21.5387C10.5303 29.6415 -0.310293 38.6999 1.031 46.472C3.52985 60.822 46.635 65.3052 97.3102 56.4674C119.947 52.517 140.25 46.6006 155.574 39.9677C154.765 40.1698 153.902 40.2616 153.001 40.2616C149.621 40.2616 146.644 39.0306 146.313 35.5763C146.258 34.9332 146.258 34.676 146.24 34.3269V26.3342C146.24 26.0035 146.277 25.3972 146.313 25.0848C146.736 21.5387 149.621 20.3995 152.983 20.3995C156.345 20.3995 159.304 21.5387 159.653 25.0848C159.708 25.6912 159.689 26.3342 159.689 26.3342V26.9773H154.894V25.9116C154.894 25.9116 154.894 25.4523 154.839 25.1951C154.765 24.7725 154.398 23.817 152.946 23.817C151.568 23.817 151.146 24.7357 151.054 25.1951C150.999 25.4523 150.98 25.783 150.98 26.0954V34.7862C150.98 35.0251 150.999 35.3007 151.035 35.5028C151.127 36.0173 151.587 36.8808 152.965 36.8808C154.343 36.8808 154.82 36.0173 154.912 35.5028C154.949 35.2823 154.949 35.0251 154.949 34.7862V32.0301H153.001V29.2189H159.745V34.3269C159.745 34.676 159.726 34.9516 159.671 35.5763C159.524 37.1381 158.844 38.2405 157.815 38.9938C175.473 31.0196 185.872 22.145 184.549 14.5198ZM54.0029 39.8942L51.4673 22.6595H51.3571L48.748 39.8942H43.6217L47.1495 20.8956H55.6014L59.1109 39.8942H54.0029ZM79.267 39.8942L79.1384 22.8065H79.0465L75.8678 39.8942H71.0539L67.8752 22.8065H67.765L67.6547 39.8942H62.8959L63.3185 20.8956H71.0723L73.4241 35.4109H73.516L75.8678 20.8956H83.6032L84.0075 39.8942H79.267ZM102.142 36.2561C101.702 39.3981 98.8903 40.5556 95.4911 40.5556C91.9634 40.5556 88.6561 39.2878 88.6561 35.0986V33.647H93.7089V35.4661C93.7089 36.4766 94.4255 37.1748 95.6014 37.1748C96.8508 37.1748 97.2734 36.5317 97.4388 35.907C97.5306 35.5396 97.5858 34.97 97.402 34.5106C96.4282 32.0853 89.7585 30.9645 88.9317 27.1243C88.7296 26.1689 88.7479 25.4339 88.8949 24.5887C89.391 21.5203 92.1287 20.4178 95.4728 20.4178C98.137 20.4178 101.812 21.0609 101.812 25.1583V26.4812H97.108C97.108 26.4812 97.108 25.6728 97.108 25.3237C97.108 24.2947 96.465 23.6333 95.3625 23.6333C94.1866 23.6333 93.7824 24.2764 93.6354 24.9011C93.5986 25.1032 93.5619 25.5074 93.6538 25.8749C94.1866 28.0798 101.316 29.2557 102.124 33.1877C102.216 33.5552 102.381 34.6209 102.142 36.2561ZM119.984 35.7784C119.653 39.3246 116.842 40.4821 113.351 40.4821C109.86 40.4821 107.048 39.3246 106.718 35.7784C106.699 35.5947 106.662 34.8781 106.681 34.529V20.8956H111.476V34.9516C111.476 35.1904 111.495 35.4661 111.513 35.6865C111.623 36.1459 112.009 37.0646 113.351 37.0646C114.673 37.0646 115.078 36.1459 115.17 35.6865C115.206 35.4844 115.225 35.2088 115.206 34.9516V20.8956H120.002V34.529C120.039 34.8781 120.002 35.5947 119.984 35.7784ZM141.297 39.7104H134.536L129.85 24.2764H129.758L130.016 39.7104H125.349V20.8956H132.404L136.777 35.8152H136.888L136.63 20.8956H141.297V39.7104Z" fill="#FFFBE3"></path>
<path d="M31.0539 20.5648C30.2822 20.8956 29.5473 21.2079 28.7939 21.5387C29.437 21.0977 30.1904 20.767 31.0539 20.5648Z" fill="#FFFFFF"></path>
<path d="M157.834 38.994C157.191 39.4534 156.437 39.7841 155.592 39.9862C156.345 39.6555 157.099 39.3248 157.834 38.994Z" fill="#FFFFFF"></path>
</svg>