<svg xmlns:xlink="http://www.w3.org/1999/xlink" xmlns="http://www.w3.org/2000/svg" viewBox="0 0 84 55" fill="none" aria-label="EA Games" style="translate: none; rotate: none; scale: none; transform: translate(0px, 0px); opacity: 1; visibility: inherit;" width="84"  height="55" ><path fill="#FFFCE1" fill-rule="evenodd" d="M53.228.838 34.865 29.783H14.79l4.669-7.158h12.449l4.513-7.159H8.566l-4.513 7.159h6.691L1.563 36.942h37.503l14.162-22.565 5.136 8.248h-4.358l-4.669 7.158h13.539l4.513 7.159h8.714L53.228.838Z" clip-rule="evenodd"></path><path fill="#FFFCE1" fill-rule="evenodd" d="M47.16.994H17.591L13.08 8.152h29.567L47.16.994ZM79.061 43.166h-.623v-2.49h-.622v-.466h1.867v.466h-.622v2.49Zm3.268-1.867-.778 1.867h-.156l-.778-1.867-.312 1.867h-.622l.622-3.112h.468l.778 2.023.623-2.023h.467l.466 3.112h-.622l-.156-1.867Zm-79.21 1.4v9.338h8.559v-3.268H7.165v-2.49h7.158v5.135c0 2.801-.778 3.424-2.956 3.424H3.275c-2.179 0-2.801-.622-2.801-3.424v-7.78c0-2.801.622-3.58 2.8-3.58h8.093c2.178 0 2.956.778 2.956 3.424v.933h-2.645V42.7H3.119Zm16.807 6.226 2.646-5.915 2.49 5.915h-5.136Zm-5.29 5.913h2.8l1.401-3.268h7.314l1.4 3.268h3.113l-6.69-14.784h-2.646l-6.693 14.784ZM32.22 40.054h2.178l5.447 9.025 5.447-9.025h2.179v14.784h-2.49v-9.182c0-.155 0-.778.155-1.556-.311.778-.623 1.245-.777 1.556L40 53.126h-.623l-4.357-7.47c-.31-.466-.467-.933-.622-1.556v10.738H32.22V40.054Zm17.74 0h11.983v2.49H52.76v3.423h5.291v2.49h-5.29v3.58h9.336v2.8H49.961V40.055Zm23.187 6.069H67.39v-3.58h6.691v2.024h2.645v-1.09c0-2.49-.933-3.268-3.89-3.268h-4.357c-2.957 0-3.89.778-3.89 3.58v1.245c0 2.8.933 3.58 3.89 3.58h5.602v3.734h-7.159V50.17h-2.956v1.09c0 2.8.933 3.58 3.89 3.58h5.29c2.958 0 3.891-.779 3.891-3.58v-1.557c0-2.801-.933-3.58-3.89-3.58Z" clip-rule="evenodd"></path></svg>